<svg width="24" height="24" viewBox="0 0 24 24" fill="none" xmlns="http://www.w3.org/2000/svg">
<style>.flicker{animation:2s flicker infinite linear}@keyframes flicker{0%{opacity:1}50%{opacity:0.2}}.item2{animation-delay:.2s}.item3{animation-delay:.4s}.item4{animation-delay:.6s}.item5{animation-delay:.8s}</style>
<path d="M5 21C4.45 21 3.97917 20.8042 3.5875 20.4125C3.19583 20.0208 3 19.55 3 19V15C3 14.45 3.19583 13.9792 3.5875 13.5875C3.97917 13.1958 4.45 13 5 13H15V9H17V13H19C19.55 13 20.0208 13.1958 20.4125 13.5875C20.8042 13.9792 21 14.45 21 15V19C21 19.55 20.8042 20.0208 20.4125 20.4125C20.0208 20.8042 19.55 21 19 21H5ZM5 19H19V15H5V19Z" fill="#3077CB"/>
<path class="flicker item1" d="M7.7125 17.7125C7.52083 17.9042 7.28333 18 7 18C6.71667 18 6.47917 17.9042 6.2875 17.7125C6.09583 17.5208 6 17.2833 6 17C6 16.7167 6.09583 16.4792 6.2875 16.2875C6.47917 16.0958 6.71667 16 7 16C7.28333 16 7.52083 16.0958 7.7125 16.2875C7.90417 16.4792 8 16.7167 8 17C8 17.2833 7.90417 17.5208 7.7125 17.7125Z" fill="#3077CB"/>
<path class="flicker item2" d="M11.2125 17.7125C11.0208 17.9042 10.7833 18 10.5 18C10.2167 18 9.97917 17.9042 9.7875 17.7125C9.59583 17.5208 9.5 17.2833 9.5 17C9.5 16.7167 9.59583 16.4792 9.7875 16.2875C9.97917 16.0958 10.2167 16 10.5 16C10.7833 16 11.0208 16.0958 11.2125 16.2875C11.4042 16.4792 11.5 16.7167 11.5 17C11.5 17.2833 11.4042 17.5208 11.2125 17.7125Z" fill="#3077CB"/>
<path class="flicker item3" d="M14.7125 17.7125C14.5208 17.9042 14.2833 18 14 18C13.7167 18 13.4792 17.9042 13.2875 17.7125C13.0958 17.5208 13 17.2833 13 17C13 16.7167 13.0958 16.4792 13.2875 16.2875C13.4792 16.0958 13.7167 16 14 16C14.2833 16 14.5208 16.0958 14.7125 16.2875C14.9042 16.4792 15 16.7167 15 17C15 17.2833 14.9042 17.5208 14.7125 17.7125Z" fill="#3077CB"/>
<path class="flicker item4" d="M12.8 6.8L14.25 8.25C14.4833 8.01667 14.7458 7.83333 15.0375 7.7C15.3292 7.56667 15.65 7.5 16 7.5C16.35 7.5 16.6708 7.56667 16.9625 7.7C17.2542 7.83333 17.5167 8.01667 17.75 8.25L19.2 6.8C18.7667 6.4 18.2833 6.08333 17.75 5.85C17.2167 5.61667 16.6333 5.5 16 5.5C15.3667 5.5 14.7833 5.61667 14.25 5.85C13.7167 6.08333 13.2333 6.4 12.8 6.8Z" fill="#3077CB"/>
<path class="flicker item5" d="M10.35 4.35L11.75 5.75C12.3 5.2 12.9375 4.77083 13.6625 4.4625C14.3875 4.15417 15.1667 4 16 4C16.8333 4 17.6125 4.15417 18.3375 4.4625C19.0625 4.77083 19.7 5.2 20.25 5.75L21.65 4.35C20.9167 3.61667 20.0667 3.04167 19.1 2.625C18.1333 2.20833 17.1 2 16 2C14.9 2 13.8667 2.20833 12.9 2.625C11.9333 3.04167 11.0833 3.61667 10.35 4.35Z" fill="#3077CB"/>
</svg>
