<svg width="37" height="45" fill="none" xmlns="http://www.w3.org/2000/svg"><path fill-rule="evenodd" clip-rule="evenodd" d="M31.873 31.361c2.579-1.35 4.196-3.29 4.196-5.447 0-4.076-5.772-7.38-12.893-7.38-7.12 0-12.893 3.304-12.893 7.38 0 .703.172 1.383.493 2.027L13.636 42l18.238-10.639Z" fill="rgba(0,0,0,0.1)"/><path fill-rule="evenodd" clip-rule="evenodd" d="M25.474 19.566a12.841 12.841 0 0 0 1.312-5.673C26.786 6.773 21.014 1 13.893 1 6.773 1 1 6.772 1 13.893c0 2.036.472 3.961 1.312 5.673h-.023L13.893 42l11.604-22.434h-.023Z" fill="#378CCD" stroke="rgba(0,0,0,0.2)" stroke-width="2px"/><circle cx="13.893" cy="13.893" r="4.642" fill="#fff"/></svg>
