<svg width="306" height="306" viewBox="0 0 306 306" fill="none" xmlns="http://www.w3.org/2000/svg">
<path d="M0 30.3001V77.0001C127.4 77.1001 231.1 179.5 232.1 305.9H277.6C276.6 154.4 152.6 31.3001 0 30.3001ZM305.8 186.5V90.6001C294 74.5001 279.9 57.2001 265.4 42.8001C249.4 26.9001 231.3 12.7001 213.1 0.100098H111.9C200.2 31.9001 271 100.1 305.8 186.5ZM0 126.8V173.5C73.8 173.6 134 232.8 135 305.9H180.5C179.4 207.6 99 127.8 0 126.8Z" fill="white"/>
<path d="M0 173.6V290.7C0 299.1 6.79999 306 15.3 306H134.9C133.9 232.8 73.8 173.6 0 173.6ZM0 77V126.8C99 127.7 179.4 207.5 180.4 305.9H232.1C231.1 179.6 127.4 77.1 0 77ZM305.8 290.6V186.5C271 100.1 200.2 31.9 111.9 0H15.3C6.89999 0 0 6.8 0 15.3V30.3C152.6 31.2 276.6 154.3 277.6 305.9H290.6C299 305.9 305.8 299.1 305.8 290.6ZM265.5 42.8C280 57.2 294.1 74.5 305.9 90.6V15.3C305.9 6.9 299.1 0 290.6 0H213.3C231.3 12.6 249.5 26.9 265.5 42.8Z" fill="#660066"/>
</svg>
