<svg width="594" height="538" viewBox="0 0 594 538" fill="#660066" xmlns="http://www.w3.org/2000/svg">
<path d="M144.1 174.4V291.5C144.1 299.9 150.9 306.8 159.4 306.8H279C278 233.6 217.9 174.4 144.1 174.4ZM144.1 77.8V127.6C243.1 128.5 323.5 208.3 324.5 306.7H376.2C375.2 180.4 271.5 77.9 144.1 77.8ZM449.9 291.4V187.3C415.1 100.9 344.3 32.7 256 0.799988H159.4C151 0.799988 144.1 7.59999 144.1 16.1V31.1C296.7 32 420.7 155.1 421.7 306.7H434.7C443.1 306.7 449.9 299.9 449.9 291.4ZM409.6 43.6C424.1 58 438.2 75.3 450 91.4V16.1C450 7.69999 443.2 0.799988 434.7 0.799988H357.4C375.4 13.4 393.6 27.7 409.6 43.6Z"/>
<path d="M342.4 431.7C342.4 438.3 341.7 444.7 340.3 450.8C338.9 456.9 336.9 462.6 334.4 468C331.8 473.4 328.6 478.3 324.9 482.9C321.1 487.5 316.8 491.5 312 495.1L351 537.7H321.6C317.4 537.7 313.5 537.2 310.1 536.2C306.6 535.2 303.6 533.1 300.9 530L281.7 508.5C278.6 509.1 275.4 509.6 272.2 510C269 510.4 265.7 510.5 262.3 510.5C250.3 510.5 239.4 508.5 229.5 504.5C219.6 500.5 211.2 494.9 204.2 487.8C197.128 480.658 191.582 472.152 187.9 462.8C184.1 453.2 182.1 442.8 182.1 431.7C182.1 420.6 184 410.2 187.9 400.6C191.582 391.248 197.128 382.742 204.2 375.6C211.2 368.5 219.7 363 229.5 359C239.4 355 250.3 353 262.3 353C274.3 353 285.2 355 295 359.1C304.8 363.2 313.3 368.7 320.2 375.8C327.2 382.9 332.6 391.2 336.4 400.8C340.5 410.3 342.4 420.6 342.4 431.7ZM82.9 446.7L86.7 455.6L90.5 446.5L94.6 438L134.2 360C134.9 358.7 135.6 357.6 136.4 356.9C137.1 356.2 138 355.6 138.9 355.3C139.8 354.9 140.9 354.8 142 354.8H173.4V508.9H141.9V420.2C141.9 415.9 142.1 411.2 142.5 406.2L101.7 485.5C100.4 488 98.7 489.8 96.6 491.1C94.4 492.4 92 493 89.2 493H84.3C81.5 493 79.1 492.4 76.9 491.1C74.7 489.8 73 488 71.8 485.5L30.7 406.1C31 408.6 31.2 411 31.3 413.5L31.5 420.2V508.9H0V354.7H31.4C32.6 354.7 33.6 354.9 34.5 355.2C35.411 355.601 36.2544 356.141 37 356.8C37.7 357.5 38.5 358.6 39.2 359.9L78.9 438.2L82.9 446.7ZM456.8 383V354.6H338.2V383H379.6V508.8H415.4V383H456.8ZM594 354.6V383H550.6V508.8H514.8V383H473.4V354.6H594ZM305.8 431.7C305.8 424.1 304.8 417.2 302.8 411.1C300.8 405 298 399.8 294.3 395.6C290.6 391.4 286.1 388.1 280.7 385.9C275.3 383.6 269.2 382.5 262.4 382.5C255.5 382.5 249.3 383.6 243.9 385.9C238.5 388.2 234 391.4 230.3 395.6C226.6 399.8 223.8 405 221.8 411.1C219.8 417.2 218.8 424.1 218.8 431.7C218.8 439.4 219.8 446.3 221.8 452.4C223.8 458.5 226.6 463.7 230.3 467.9C234 472.1 238.6 475.4 243.9 477.6C249.3 479.8 255.4 480.9 262.4 480.9C269.2 480.9 275.3 479.8 280.7 477.6C286.1 475.4 290.6 472.2 294.3 467.9C298 463.7 300.8 458.5 302.8 452.4C304.8 446.3 305.8 439.4 305.8 431.7Z"/>
</svg>
