<?xml version="1.0" encoding="UTF-8"?>
<svg width="1200pt" height="1200pt" version="1.1" viewBox="0 0 1200 1200" xmlns="http://www.w3.org/2000/svg">
 <g fill="#1c4fa2">
  <path d="m973.2 973.2c206.4-205.2 206.4-541.2 0-746.4-99.598-99.602-231.6-154.8-373.2-154.8s-273.6 55.199-373.2 154.8c-206.4 205.2-206.4 541.2 0 746.4 99.598 99.602 231.6 154.8 373.2 154.8s273.6-55.199 373.2-154.8zm-721.2-721.2c92.398-92.398 216-144 348-144s254.4 51.602 348 144c192 192 192 504 0 696-92.398 92.398-216 144-348 144s-254.4-51.602-348-144c-192-192-192-504 0-696z"/>
  <path d="m618 854.4v-236.4h236.4c9.6016 0 18-8.3984 18-18s-8.3984-18-18-18h-236.4v-236.4c0-9.6016-8.3984-18-18-18s-18 8.3984-18 18v236.4h-236.4c-9.6016 0-18 8.3984-18 18s8.3984 18 18 18h236.4v236.4c0 9.6016 8.3984 18 18 18s18-8.3984 18-18z"/>
 </g>
</svg>
