<svg width="134" height="134" viewBox="0 0 134 134" fill="currentColor" xmlns="http://www.w3.org/2000/svg">
<path d="M37.3333 66.3907C37.3333 65.2865 37.776 64.224 38.5573 63.4428L88.5573 13.7188L88.5573 13.724C89.3281 12.8959 90.401 12.4167 91.5313 12.3959C92.6615 12.3751 93.7501 12.8178 94.5521 13.6147C95.349 14.4167 95.7917 15.5053 95.7708 16.6355C95.75 17.7657 95.2708 18.8385 94.4427 19.6095L47.4427 66.6668L94.7761 114C95.7865 115.672 95.4948 117.818 94.0833 119.167C92.6719 120.516 90.5104 120.698 88.8907 119.609L38.6147 69.3335L38.6095 69.3335C37.8074 68.5627 37.349 67.5 37.3333 66.3907Z"/>
</svg>
