<?xml version="1.0" encoding="UTF-8"?>
<svg width="1200pt" height="1200pt" version="1.1" viewBox="0 0 1200 1200" xmlns="http://www.w3.org/2000/svg">
 <path d="m787.5 675c0 103.41-84.141 187.5-187.5 187.5s-187.5-84.094-187.5-187.5 84.141-187.5 187.5-187.5 187.5 84.094 187.5 187.5zm375-281.26v600c0 72.375-58.875 131.26-131.26 131.26h-862.5c-72.375 0-131.26-58.875-131.26-131.26v-600c0-72.375 58.875-131.26 131.26-131.26h145.55l62.672-125.29c19.219-38.391 57.75-62.203 100.64-62.203h244.82c42.891 0 81.422 23.812 100.59 62.203l62.672 125.29h145.55c72.375 0 131.26 58.875 131.26 131.26zm-300 281.26c0-144.74-117.75-262.5-262.5-262.5s-262.5 117.75-262.5 262.5 117.75 262.5 262.5 262.5 262.5-117.75 262.5-262.5z" fill="#fff"/>
</svg>
