<?xml version="1.0" encoding="UTF-8"?>
<svg width="1200pt" height="1200pt" version="1.1" viewBox="0 0 1200 1200" xmlns="http://www.w3.org/2000/svg">
 <g fill="#1c4fa2" fill-rule="evenodd">
  <path d="m600 458.31c-112.96 0-204.66 91.703-204.66 204.66 0 112.96 91.707 204.67 204.66 204.67 112.96 0 204.67-91.707 204.67-204.67 0-112.96-91.707-204.66-204.67-204.66zm0 31.473c95.582 0 173.19 77.613 173.19 173.19 0 95.582-77.609 173.19-173.19 173.19-95.578 0-173.19-77.609-173.19-173.19 0-95.578 77.609-173.19 173.19-173.19z"/>
  <path d="m600 521.28c-78.203 0-141.7 63.492-141.7 141.7 0 78.207 63.492 141.7 141.7 141.7 78.207 0 141.7-63.492 141.7-141.7 0-78.203-63.492-141.7-141.7-141.7zm0 31.488c60.824 0 110.21 49.387 110.21 110.21 0 60.824-49.387 110.21-110.21 110.21-60.82 0-110.21-49.387-110.21-110.21 0-60.82 49.387-110.21 110.21-110.21z"/>
  <path d="m769.74 395.33-16.578-66.328c-8.7695-35.047-40.258-59.625-76.375-59.625h-153.57c-36.117 0-67.605 24.578-76.375 59.625l-16.578 66.328h-82.168c-29.238 0-57.262 11.605-77.934 32.277-20.672 20.672-32.277 48.695-32.277 77.934v314.88c0 29.238 11.605 57.262 32.277 77.934 20.672 20.656 48.695 32.273 77.934 32.273h503.81c29.238 0 57.262-11.617 77.934-32.273 20.672-20.672 32.273-48.695 32.273-77.934v-314.88c0-29.238-11.602-57.262-32.273-77.934-20.672-20.656-48.695-32.277-77.934-32.277zm-27.566 19.57c1.7461 7.0078 8.043 11.918 15.27 11.918h94.465c20.875 0 40.902 8.2969 55.672 23.051 14.75 14.766 23.047 34.793 23.047 55.672v314.88c0 20.879-8.2969 40.902-23.047 55.672-14.77 14.75-34.797 23.047-55.672 23.047h-503.81c-20.879 0-40.902-8.2969-55.672-23.047-14.754-14.77-23.051-34.793-23.051-55.672v-314.88c0-20.879 8.2969-40.906 23.051-55.672 14.77-14.754 34.793-23.051 55.672-23.051h94.465c7.2266 0 13.523-4.9102 15.27-11.918l19.57-78.262c5.2578-21.02 24.152-35.773 45.816-35.773h153.57c21.68 0 40.559 14.754 45.816 35.773 0 0 19.57 78.262 19.57 78.262z"/>
  <path d="m348.1 458.3c-26.074 0-47.234 21.16-47.234 47.234 0 26.07 21.16 47.23 47.234 47.23 26.07 0 47.23-21.16 47.23-47.23 0-26.074-21.16-47.234-47.23-47.234zm0 31.488c8.6914 0 15.742 7.0547 15.742 15.746 0 8.6875-7.0508 15.742-15.742 15.742s-15.746-7.0547-15.746-15.742c0-8.6914 7.0547-15.746 15.746-15.746z"/>
 </g>
</svg>
