<?xml version="1.0" encoding="UTF-8"?>
<svg width="1200pt" height="1200pt" version="1.1" viewBox="0 0 1200 1200" xmlns="http://www.w3.org/2000/svg">
 <path d="m988.84 104.92v831.08c-0.011719 5.3164-2.1289 10.414-5.8867 14.172-3.7617 3.7617-8.8555 5.8789-14.176 5.8867h-85.664v-692.06c-0.023437-19.449-7.7617-38.094-21.516-51.848-13.754-13.75-32.402-21.484-51.852-21.504h-439.58v-85.73c0.003906-5.3164 2.1172-10.414 5.875-14.172 3.7578-3.7578 8.8555-5.8711 14.172-5.875h578.53c5.3164 0.003906 10.414 2.1172 14.176 5.875 3.7578 3.7578 5.875 8.8555 5.8828 14.172zm-159.02 990.16v-831.08c-0.007812-5.3203-2.125-10.422-5.8867-14.18-3.7656-3.7617-8.8672-5.875-14.188-5.8789h-578.59c-5.3086 0.019532-10.395 2.1406-14.141 5.8984-3.75 3.7617-5.8594 8.8516-5.8672 14.16v831.16c0.03125 5.2969 2.1484 10.363 5.8984 14.102 3.7461 3.7422 8.8164 5.8516 14.109 5.8711h578.53c5.3203-0.003906 10.418-2.1172 14.18-5.875 3.7656-3.7578 5.8828-8.8555 5.8906-14.172zm-439.59-1063.5c-19.441 0.023437-38.082 7.7578-51.832 21.508-13.75 13.746-21.484 32.387-21.508 51.832v85.68h-85.73c-19.441 0.042969-38.07 7.7969-51.805 21.555-13.734 13.762-21.449 32.406-21.457 51.848v831.16c0.039063 19.422 7.7734 38.031 21.504 51.762 13.73 13.73 32.34 21.465 51.758 21.504h578.53c19.449-0.019531 38.094-7.7539 51.848-21.5 13.75-13.75 21.492-32.395 21.516-51.84v-85.691h85.668c19.461-0.011719 38.121-7.7461 51.883-21.508 13.762-13.762 21.496-32.422 21.508-51.883v-831.08c-0.023438-19.441-7.7578-38.078-21.504-51.828-13.742-13.75-32.383-21.484-51.824-21.512z" fill="rgba(0, 0, 0, 0.38)" fill-rule="evenodd"/>
</svg>
