<?xml version="1.0" encoding="UTF-8"?>
<svg width="100pt" height="100pt" version="1.1" viewBox="0 0 100 100" xmlns="http://www.w3.org/2000/svg">
 <g>
  <path d="m62.5 34.375h-25c-1.7188 0-3.125 1.4062-3.125 3.125v25c0 1.7188 1.4062 3.125 3.125 3.125h25c1.7188 0 3.125-1.4062 3.125-3.125v-25c0-1.7188-1.4062-3.125-3.125-3.125zm0 28.125h-25v-25h25z"/>
  <path d="m93.75 51.562c0.9375 0 1.5625-0.625 1.5625-1.5625s-0.625-1.5625-1.5625-1.5625h-10.938v-14.062h10.938c0.9375 0 1.5625-0.625 1.5625-1.5625s-0.625-1.5625-1.5625-1.5625h-10.938v-9.375c0-2.6562-2.0312-4.6875-4.6875-4.6875h-9.375v-10.938c0-0.9375-0.625-1.5625-1.5625-1.5625s-1.5625 0.625-1.5625 1.5625v10.938h-14.062v-10.938c0-0.9375-0.625-1.5625-1.5625-1.5625s-1.5625 0.625-1.5625 1.5625v10.938h-14.062v-10.938c0-0.9375-0.625-1.5625-1.5625-1.5625s-1.5625 0.625-1.5625 1.5625v10.938h-9.375c-2.6562 0-4.6875 2.0312-4.6875 4.6875v9.375h-10.938c-0.9375 0-1.5625 0.625-1.5625 1.5625s0.625 1.5625 1.5625 1.5625h10.938v14.062h-10.938c-0.9375 0-1.5625 0.625-1.5625 1.5625s0.625 1.5625 1.5625 1.5625h10.938v14.062h-10.938c-0.9375 0-1.5625 0.625-1.5625 1.5625s0.625 1.5625 1.5625 1.5625h10.938v9.375c0 2.6562 2.0312 4.6875 4.6875 4.6875h9.375v10.938c0 0.9375 0.625 1.5625 1.5625 1.5625s1.5625-0.625 1.5625-1.5625v-10.938h14.062v10.938c0 0.9375 0.625 1.5625 1.5625 1.5625s1.5625-0.625 1.5625-1.5625v-10.938h14.062v10.938c0 0.9375 0.625 1.5625 1.5625 1.5625s1.5625-0.625 1.5625-1.5625v-10.938h9.375c2.6562 0 4.6875-2.0312 4.6875-4.6875v-9.375h10.938c0.9375 0 1.5625-0.625 1.5625-1.5625s-0.625-1.5625-1.5625-1.5625h-10.938v-14.062zm-14.062 26.562c0 0.9375-0.625 1.5625-1.5625 1.5625h-56.25c-0.9375 0-1.5625-0.625-1.5625-1.5625v-56.25c0-0.9375 0.625-1.5625 1.5625-1.5625h56.25c0.9375 0 1.5625 0.625 1.5625 1.5625z"/>
 </g>
</svg>
