<?xml version="1.0" encoding="UTF-8"?>
<svg width="1200pt" height="1200pt" version="1.1" viewBox="0 0 1200 1200" xmlns="http://www.w3.org/2000/svg">
 <path d="m387.5 1015.2h700v-37.5h-83v-761.38l-207.38-122.38-428.75 118.5v180l-172.88 48.375v536.88h-82v37.5zm-154.5-419.88 249.12-69v87.5l-249.12 68.625zm0 126.12 249.12-69.125v87.5l-249.12 68.75zm286.62 256.25v-569.25l97.125 57.25v512.5zm447.38 0h-153.88v-830.75l153.88 90.5zm-561.12-736.38 369.75-102.5v838.88h-121.38v-533.38l-150.75-89-97.625 27.125zm76.25 158.62v87.5l-249.12 69v-87.5zm-249.12 447.5 249.12-69v199.25h-249.12zm853.5 258.5h-973v-37.5h973z" fill="#fff"/>
</svg>
