<?xml version="1.0" encoding="UTF-8"?>
<svg width="1200pt" height="1200pt" version="1.1" viewBox="0 0 1200 1200" xmlns="http://www.w3.org/2000/svg">
 <path d="m939.79 349.8c1.4141-30.254 47.375-28.02 45.898 2.1602l-29.879 589.22c-3.1562 62.219-50.844 114.56-114.05 114.56h-483.52c-63.203 0-110.9-52.332-114.05-114.56l-29.879-589.22c-1.4766-30.133 44.426-32.449 45.898-2.1602l29.879 589.22c1.9062 37.727 29.594 70.633 68.148 70.633h483.5c38.555 0 66.238-32.914 68.148-70.633zm-250.72 101.88v328.32c0 30.336 46.078 30.336 46.078 0l0.003906-328.32c0-30.336-46.082-30.336-46.082 0zm-224.22 0v328.32c0 30.336 46.078 30.336 46.078 0l0.003906-328.32c0-30.336-46.082-30.336-46.082 0zm-296.86-179.44c-30.336 0-30.336-46.078 0-46.078h296.84c0-23.988-1.1289-43.223 18.781-63.133 11.578-11.578 27.59-18.781 45.215-18.781l142.32 0.003906c35.242 0 63.996 28.754 63.996 63.996v17.914h296.84c30.336 0 30.336 46.078 0 46.078h-864zm342.93-46.078h178.16c0-11.375 3.4805-35.832-17.914-35.832h-142.34c-21.445 0-17.914 24.66-17.914 35.832z" fill="rgba(0, 0, 0, 0.38)" fill-rule="evenodd"/>
</svg>
