<?xml version="1.0" encoding="UTF-8"?>
<svg width="100pt" height="100pt" version="1.1" viewBox="0 0 100 100" xmlns="http://www.w3.org/2000/svg">
 <g fill="#1c4fa2">
  <path d="m45 32.5c-1.3789 0-2.5 1.1211-2.5 2.5v17.926c0 0.66406-0.26562 1.3047-0.73828 1.7734l-21.348 21.352c-3.8242-2.0664-8.582-1.0156-11.18 2.4688-2.5938 3.4844-2.2422 8.3438 0.83203 11.414 3.0703 3.0742 7.9297 3.4258 11.414 0.83203 3.4844-2.5977 4.5352-7.3555 2.4688-11.18l21.352-21.348c1.4102-1.4102 2.1992-3.3203 2.1992-5.3125v-17.926c0-0.66406-0.26172-1.3008-0.73047-1.7695s-1.1055-0.73047-1.7695-0.73047zm-28.75 55c-1.5156 0-2.8828-0.91406-3.4648-2.3164-0.58203-1.3984-0.25781-3.0117 0.8125-4.0859 1.0742-1.0703 2.6875-1.3945 4.0859-0.8125 1.4023 0.58203 2.3164 1.9492 2.3164 3.4648 0 2.0703-1.6797 3.75-3.75 3.75z"/>
  <path d="m83.75 7.5c-3.082 0-5.9414 1.6211-7.5195 4.2695-1.5781 2.6484-1.6484 5.9297-0.17969 8.6445l-21.352 21.348c-1.4102 1.4102-2.1992 3.3203-2.1992 5.3125v17.926c0 1.3789 1.1211 2.5 2.5 2.5s2.5-1.1211 2.5-2.5v-17.926c-0.003906-0.66406 0.25781-1.3008 0.72656-1.7734l21.359-21.363c1.2773 0.69922 2.7109 1.0625 4.1641 1.0625 4.832 0 8.75-3.918 8.75-8.75s-3.918-8.75-8.75-8.75zm0 12.5c-1.5156 0-2.8828-0.91406-3.4648-2.3164-0.58203-1.3984-0.25781-3.0117 0.8125-4.0859 1.0742-1.0703 2.6875-1.3945 4.0859-0.8125 1.4023 0.58203 2.3164 1.9492 2.3164 3.4648 0 2.0703-1.6797 3.75-3.75 3.75z"/>
 </g>
</svg>
