<svg width="134" height="134" viewBox="0 0 134 134" fill="none" xmlns="http://www.w3.org/2000/svg">
<path d="M74.0054 128.505C43.9596 128.505 19.5054 104.051 19.5054 74.0053C19.5054 43.9595 43.9596 19.5053 74.0054 19.5053C104.051 19.5053 128.505 43.9595 128.505 74.0053C128.505 104.051 104.051 128.505 74.0054 128.505ZM74.0054 25.6747C47.3478 25.6747 25.6686 47.3539 25.6686 74.0115C25.6686 100.669 47.3478 122.348 74.0054 122.348C100.663 122.348 122.342 100.669 122.342 74.0115C122.342 47.3539 100.663 25.6747 74.0054 25.6747Z" fill="#CC0806"/>
<path d="M38.7532 114.499C37.9647 114.499 37.1823 114.192 36.5803 113.591C35.3766 112.387 35.3766 110.431 36.5803 109.233L109.245 36.5622C110.449 35.3584 112.405 35.3584 113.602 36.5622C114.806 37.7659 114.806 39.7221 113.602 40.9197L40.9255 113.603C40.3237 114.205 39.5412 114.512 38.7527 114.512L38.7532 114.499Z" fill="#CC0806"/>
</svg>
