<svg width="134" height="134" viewBox="0 0 134 134" fill="none" xmlns="http://www.w3.org/2000/svg">
<path d="M67.5 122C37.4542 122 13 97.5458 13 67.5C13 37.4542 37.4542 13 67.5 13C97.5458 13 122 37.4542 122 67.5C122 97.5458 97.5458 122 67.5 122ZM67.5 19.1694C40.8424 19.1694 19.1632 40.8486 19.1632 67.5062C19.1632 94.1637 40.8424 115.843 67.5 115.843C94.1576 115.843 115.837 94.1637 115.837 67.5062C115.837 40.8486 94.1576 19.1694 67.5 19.1694Z" fill="#1C4FA2"/>
<path d="M32.2478 107.994C31.4593 107.994 30.6769 107.687 30.0749 107.085C28.8712 105.881 28.8712 103.925 30.0749 102.728L102.74 30.0568C103.943 28.8531 105.899 28.8531 107.097 30.0568C108.301 31.2606 108.301 33.2167 107.097 34.4144L34.4202 107.098C33.8183 107.699 33.0359 108.006 32.2473 108.006L32.2478 107.994Z" fill="#1C4FA2"/>
</svg>
