<?xml version="1.0" encoding="UTF-8"?>
<svg width="1200pt" height="1200pt" version="1.1" viewBox="0 0 1200 1200" xmlns="http://www.w3.org/2000/svg">
 <path d="m600.01 245.71c-195.36 0-354.24 158.88-354.24 354.24 0 195.36 158.88 354.24 354.24 354.24 195.36 0 354.24-158.88 354.24-354.24s-158.88-354.24-354.24-354.24zm0 47.23c76.379 0 146.11 27.777 199.77 73.754l-4.0156 4.0117-425 425.18-3.9648 3.9219c-46.016-53.668-73.801-123.45-73.801-199.86 0-169.84 137.18-307.01 307.01-307.01zm233.25 107.24c45.977 53.656 73.754 123.39 73.754 199.77 0 169.84-137.17 307.01-307.01 307.01-76.379 0-146.11-27.777-199.77-73.754l4.0156-4.0117 425-425z" fill="#cc0806"/>
</svg>
