<?xml version="1.0" encoding="UTF-8"?>
<svg width="1200pt" height="1200pt" version="1.1" viewBox="0 0 1200 1200" xmlns="http://www.w3.org/2000/svg">
 <path d="m600 454.8c-38.508 0-75.441 15.297-102.67 42.527s-42.527 64.164-42.527 102.67 15.297 75.441 42.527 102.67 64.164 42.527 102.67 42.527 75.441-15.297 102.67-42.527 42.527-64.164 42.527-102.67-15.297-75.441-42.527-102.67-64.164-42.527-102.67-42.527zm0 242.4c-25.777 0-50.504-10.238-68.73-28.469-18.23-18.227-28.469-42.953-28.469-68.73s10.238-50.504 28.469-68.73c18.227-18.23 42.953-28.469 68.73-28.469s50.504 10.238 68.73 28.469c18.23 18.227 28.469 42.953 28.469 68.73s-10.238 50.504-28.469 68.73c-18.227 18.23-42.953 28.469-68.73 28.469z" />
</svg>
