<?xml version="1.0" encoding="UTF-8"?>
<svg width="100pt" height="100pt" version="1.1" viewBox="0 0 100 100" xmlns="http://www.w3.org/2000/svg">
 <path d="m49.793 72c-0.82812 0-1.625-0.33203-2.2109-0.91797l-37.293-37.5h0.003907c-0.62109-0.57812-0.98047-1.3828-0.99609-2.2305-0.015625-0.84766 0.31641-1.6641 0.91406-2.2656 0.60156-0.59766 1.418-0.92969 2.2656-0.91406 0.84766 0.015625 1.6523 0.375 2.2305 0.99609l35.293 35.25 35.5-35.5c1.2539-0.75781 2.8633-0.53906 3.875 0.51953s1.1484 2.6797 0.33203 3.8945l-37.707 37.707v0.003907c-0.57812 0.60156-1.375 0.94531-2.207 0.95703z" fill="#1c4fa2"/>
</svg>
