<?xml version="1.0" encoding="UTF-8"?>
<svg width="100pt" height="100pt" version="1.1" viewBox="0 0 100 100" xmlns="http://www.w3.org/2000/svg">
 <g>
  <path d="m49.988 62.988c-0.92188 0-1.668 0.74609-1.668 1.668v19.996l-5.5234-6.0508c-0.61328-0.67578-1.6797-0.72266-2.3516-0.10547-0.67969 0.62109-0.73047 1.6758-0.10547 2.3555l8.4258 9.2266c0.003906 0.003906 0.011719 0.007813 0.019531 0.011719 0.019532 0.023437 0.046875 0.046875 0.066406 0.066406 0.007813 0.007812 0.007813 0.015625 0.015626 0.023438 0.011718 0.011718 0.027343 0.003906 0.042968 0.015624 0.12109 0.10547 0.25 0.19922 0.39453 0.26563 0.007812 0.003906 0.011718 0.011718 0.019531 0.015624 0.19922 0.085938 0.42188 0.13672 0.65234 0.13672 0.066407 0 0.125-0.035156 0.1875-0.039062 0.16016-0.019531 0.31641-0.035157 0.45703-0.097657 0.0625-0.023437 0.11328-0.082031 0.17578-0.11719 0.082031-0.050781 0.16406-0.097656 0.23828-0.16016 0.015625-0.015625 0.046875-0.007813 0.0625-0.023438 0.011719-0.007812 0.015625-0.023437 0.023438-0.035156 0.015625-0.015625 0.027344-0.027344 0.042968-0.042969 0.011719-0.011718 0.027344-0.015625 0.042969-0.027344l8.4453-9.2695c0.61719-0.68359 0.57031-1.7383-0.10938-2.3555-0.67969-0.62109-1.7305-0.57031-2.3555 0.10938l-5.5508 6.0898v-19.996c0.015625-0.91406-0.73438-1.6602-1.6484-1.6602z"/>
  <path d="m10.113 90.617 18.652 0.003906c0.92188 0 1.668-0.74609 1.668-1.668s-0.75-1.668-1.668-1.668l-18.652-0.003906c-5.1641 0-6.5-2.7734-6.7031-5.1055-0.003906-0.019531-0.007812-0.046875-0.007812-0.070312l-0.003906-49.207c0-3.6758 2.9922-6.668 6.668-6.668h35.898c0.10156 0 0.18359-0.042969 0.27734-0.058594 0.082031 0.011719 0.15234 0.0625 0.23828 0.0625h0.003906c10.59-0.015625 21.184-0.015625 31.773-0.011719h11.555c6.125 0 6.7852 3.5508 6.7852 5.0742v50.621c-0.007812 0.070312-0.015625 0.13281-0.019531 0.17188-0.35547 3.4922-2.4297 5.1914-6.3516 5.1914l-18.992 0.003906c-0.92188 0-1.668 0.74609-1.668 1.668 0.003906 0.92188 0.75 1.668 1.668 1.668l18.992-0.003906c5.6211 0 9.1406-2.9844 9.6367-8.1211 0.046875-0.15234 0.070313-0.3125 0.070313-0.47266l0.003906-50.723c0-3.8789-2.6523-8.4102-10.121-8.4102h-11.555c-10.277-0.003906-20.559-0.003906-30.828 0.011719l-5.7305-9.6211c-1.8086-2.5977-4.2578-3.8633-7.5-3.8711-8.2422-0.035156-16.48-0.046875-24.691 0.011719-7.4727 0-9.4492 5.543-9.4492 8.4766v64.309c0 0.089844 0.0078125 0.17969 0.023438 0.26953 0.17187 1.9102 1.4023 8.1406 10.027 8.1406zm-0.58984-77.863c8.2148-0.054687 16.434-0.039062 24.668-0.007812 2.1641 0.007812 3.5859 0.73828 4.7109 2.3477l4.6445 7.8125-33.48-0.003906c-2.5703 0-4.8906 1-6.668 2.6016v-7.6016c0.015624-0.85547 0.36719-5.1484 6.125-5.1484z"/>
 </g>
</svg>
