<?xml version="1.0" encoding="UTF-8"?>
<svg width="1200pt" height="1200pt" version="1.1" viewBox="0 0 1200 1200" xmlns="http://www.w3.org/2000/svg">
 <path d="m958.3 214.62-72.59-58.043c-11.062-8.8438-26.34-11.605-41.914-7.5586-14.484 3.7578-28.129 12.926-38.426 25.801l-105.56 132.01-399.07 499.09c-0.48047 0.60156-0.66016 1.3203-1.0195 1.9805s-0.86328 1.2227-1.1172 1.9688l-72.816 222.34c-2.0156 6.1562 1.0938 12.574 6.8516 15.191 2.4258 3.4219 6.2383 5.375 10.211 5.375 2.1953 0 4.4141-0.57422 6.4336-1.7773l200.88-119.95c0.94922-0.5625 1.6094-1.3789 2.3516-2.1367 0.3125-0.3125 0.74219-0.45703 1.0195-0.81641l399.09-499.09 105.56-132.02c22.188-27.742 22.234-64.703 0.12109-82.391zm-523 696.01-178.07 106.32 64.547-197.1 389.81-487.48 113.52 90.77-389.81 487.5zm503.22-629.34-97.703 122.2-113.52-90.77 97.703-122.2c6.8281-8.543 15.973-14.797 25.105-17.16 4.5977-1.1992 13.297-2.4102 19.883 2.8555l72.59 58.043c11.09 8.8672 9.2266 30.406-4.0547 47.027z" fill="#1c4fa2"/>
</svg>
