<?xml version="1.0" encoding="UTF-8"?>
<svg width="100pt" height="100pt" version="1.1" viewBox="0 0 100 100" xmlns="http://www.w3.org/2000/svg">
 <g >
  <path d="m85.418 41.668v36.457c0 1.9336-0.76953 3.7891-2.1367 5.1562s-3.2227 2.1367-5.1562 2.1367h-57.293c-3.4492 0-6.25-2.8008-6.25-6.25v-58.336c0-3.4492 2.8008-6.25 6.25-6.25h37.5v-4.1641h-37.5c-5.75 0-10.414 4.6641-10.414 10.414v58.336c0 2.7617 1.0977 5.4102 3.0508 7.3633s4.6016 3.0508 7.3633 3.0508h57.293c6.3242-0.011719 11.445-5.1328 11.457-11.457v-36.457z"/>
  <path d="m52.082 29.168h-4.1641v20.832c-0.015625 0.27344 0.035156 0.54297 0.14453 0.79297 0.32422 0.78516 1.0898 1.293 1.9375 1.2891h20.832v-4.1641h-15.812l33.961-33.938-2.9609-2.9609-33.938 33.961z"/>
 </g>
</svg>
