<?xml version="1.0" encoding="UTF-8"?>
<svg width="1200pt" height="1200pt" version="1.1" viewBox="0 0 1200 1200" xmlns="http://www.w3.org/2000/svg">
 <g fill="rgba(0, 0, 0, 0.38)">
  <path d="m646.88 447.38c0 23.238-18.836 42.074-42.07 42.074s-42.074-18.836-42.074-42.074c0-23.234 18.84-42.07 42.074-42.07s42.07 18.836 42.07 42.07"/>
  <path d="m604.81 238.11c211.55 0 383.66 172.12 383.66 383.66s-172.12 383.66-383.66 383.66-383.68-172.11-383.68-383.66c0-211.56 172.12-383.66 383.68-383.66m0-42.625c-235.44 0-426.3 190.86-426.3 426.3s190.86 426.3 426.3 426.3 426.3-190.86 426.3-426.3-190.88-426.3-426.3-426.3z"/>
  <path d="m574.97 546.83h59.676v291.41h-59.676z"/>
 </g>
</svg>
