<?xml version="1.0" encoding="UTF-8"?>
<svg width="1200pt" height="1200pt" version="1.1" viewBox="0 0 1200 1200" xmlns="http://www.w3.org/2000/svg">
 <g fill="#1c4fa2">
  <path d="m552.96 921.36c0.60156 3.1211 1.5586 6.1211 2.7617 9 1.1992 2.8789 2.6406 5.6406 4.3203 8.2812 1.8008 2.6406 3.8398 5.0391 6 7.3203 2.2812 2.1602 4.6797 4.1992 7.3203 6 2.6406 1.6797 5.3984 3.1211 8.2812 4.3203 2.8789 1.1992 5.8789 2.1602 9 2.7617 3.1211 0.60156 6.2383 0.96094 9.3594 0.96094 12.602 0 24.961-5.1602 33.961-14.039 8.8789-9 14.039-21.359 14.039-33.961 0-12.602-5.1602-24.961-14.039-33.961-11.16-11.16-27.719-16.199-43.32-13.078-3.1211 0.60156-6.1211 1.5586-9 2.7617-2.8789 1.1992-5.6406 2.6406-8.2812 4.3203-2.6406 1.8008-5.0391 3.8398-7.3203 6-2.1602 2.2812-4.1992 4.6797-6 7.3203-1.6797 2.6406-3.1211 5.3984-4.3203 8.2812-1.1992 2.8789-2.1602 5.8789-2.7617 9-0.60156 3.1211-0.96094 6.2383-0.96094 9.3594 0 3.1211 0.35938 6.2383 0.96094 9.3594z"/>
  <path d="m555.72 306.36c1.1992 2.8789 2.6406 5.6406 4.3203 8.2812 1.8008 2.6406 3.8398 5.0391 6 7.3203 2.2812 2.1602 4.6797 4.1992 7.3203 6 2.6406 1.6797 5.3984 3.1211 8.2812 4.3203 2.8789 1.1992 5.8789 2.1602 9 2.7617 3.1211 0.60156 6.2383 0.96094 9.3594 0.96094 12.602 0 24.961-5.1602 33.961-14.039 8.8789-9 14.039-21.359 14.039-33.961 0-12.602-5.1602-24.961-14.039-33.961-11.16-11.16-27.719-16.199-43.32-13.078-3.1211 0.60156-6.1211 1.5586-9 2.7617-2.8789 1.1992-5.6406 2.6406-8.2812 4.3203-2.6406 1.8008-5.0391 3.8398-7.3203 6-2.1602 2.2812-4.1992 4.6797-6 7.3203-1.6797 2.6406-3.1211 5.3984-4.3203 8.2812-1.1992 2.8789-2.1602 5.8789-2.7617 9-0.60156 3.1211-0.96094 6.2383-0.96094 9.3594 0 3.1211 0.35938 6.2383 0.96094 9.3594 0.60156 3.1211 1.5586 6.1211 2.7617 9z"/>
  <path d="m552.96 609.36c0.60156 3.1211 1.5586 6.1211 2.7617 9 1.1992 2.8789 2.6406 5.6406 4.3203 8.2812 1.8008 2.6406 3.8398 5.0391 6 7.3203 2.2812 2.1602 4.6797 4.1992 7.3203 6 2.6406 1.6797 5.3984 3.1211 8.2812 4.3203 2.8789 1.1992 5.8789 2.1602 9 2.7617 3.1211 0.60156 6.2383 0.96094 9.3594 0.96094 12.602 0 24.961-5.1602 33.961-14.039 8.8789-9 14.039-21.359 14.039-33.961 0-12.602-5.1602-24.961-14.039-33.961-11.16-11.16-27.719-16.199-43.32-13.078-3.1211 0.60156-6.1211 1.5586-9 2.7617-2.8789 1.1992-5.6406 2.6406-8.2812 4.3203-2.6406 1.8008-5.0391 3.8398-7.3203 6-2.1602 2.2812-4.1992 4.6797-6 7.3203-1.6797 2.6406-3.1211 5.3984-4.3203 8.2812-1.1992 2.8789-2.1602 5.8789-2.7617 9-0.60156 3.1211-0.96094 6.2383-0.96094 9.3594 0 3.1211 0.35938 6.2383 0.96094 9.3594z"/>
 </g>
</svg>
