<?xml version="1.0" encoding="UTF-8"?>
<svg width="1200pt" height="1200pt" version="1.1" viewBox="0 0 1200 1200" xmlns="http://www.w3.org/2000/svg">
 <path d="m600 121.88c-126.8 0-248.42 50.375-338.09 140.04-89.664 89.668-140.04 211.28-140.04 338.09s50.375 248.42 140.04 338.09c89.668 89.664 211.28 140.04 338.09 140.04s248.42-50.375 338.09-140.04c89.664-89.668 140.04-211.28 140.04-338.09-0.14844-126.76-50.57-248.29-140.2-337.92s-211.16-140.05-337.92-140.2zm0 900c-111.89 0-219.2-44.449-298.31-123.56-79.113-79.117-123.56-186.43-123.56-298.31s44.449-219.2 123.56-298.31c79.117-79.113 186.43-123.56 298.31-123.56s219.2 44.449 298.31 123.56c79.113 79.117 123.56 186.43 123.56 298.31-0.097656 111.86-44.578 219.11-123.68 298.2-79.094 79.098-186.34 123.58-298.2 123.68zm236.81-575.62c5.418 5.1211 8.582 12.188 8.793 19.641 0.21094 7.457-2.5469 14.688-7.668 20.109l-245.62 259.12c-16.016 16.727-38.156 26.203-61.312 26.25h-2.0625c-23.824-0.59375-46.293-11.215-61.875-29.25l-105.94-123.38c-6.6992-7.6367-8.8164-18.266-5.5508-27.887 3.2656-9.6172 11.414-16.766 21.375-18.75 9.9648-1.9844 20.227 1.5 26.926 9.1367l105.75 123c5.2617 6.0273 12.812 9.5664 20.812 9.75 7.9102 0.0625 15.504-3.1211 21-8.8125l245.62-259.12c5.2969-5.2422 12.461-8.168 19.914-8.1328 7.4531 0.035156 14.586 3.0273 19.836 8.3203z" fill="#1c4fa2"/>
</svg>
