<?xml version="1.0" encoding="UTF-8"?>
<svg width="1200pt" height="1200pt" version="1.1" viewBox="0 0 1200 1200" xmlns="http://www.w3.org/2000/svg">
 <g fill="#1c4fa2">
  <path d="m891.33 625.31c-35.074-0.125-69.801 6.9688-102.02 20.84-32.219 13.871-61.234 34.219-85.25 59.785-69.809-55.699-156.55-85.883-245.86-85.547h-0.70312c-107.34 0.23438-206.95 41.953-280.78 117.89-75 76.641-116.02 181.41-115.78 295.08 0.046875 6.2148 2.4805 12.172 6.7969 16.641 4.4102 4.4102 10.406 6.8594 16.641 6.7969l615.23-1.1719c1.4062 1.6406 2.8125 3.0469 4.2188 4.6875 39.273 41.559 91.246 68.891 147.75 77.688 56.5 8.8008 114.32-1.4258 164.38-29.074 50.051-27.648 89.496-71.145 112.13-123.66s27.176-111.05 12.906-166.43-46.535-104.43-91.73-139.46c-45.191-35.031-100.75-54.051-157.93-54.066zm-782.81 384.38c4.9219-92.109 40.547-176.25 101.72-238.83 64.922-66.797 152.81-103.59 247.27-103.59h0.70312c78.828-0.30469 155.4 26.32 217.03 75.469-25.48 39.359-39.77 84.91-41.34 131.77-1.5703 46.859 9.6445 93.266 32.434 134.24zm782.81 84.375c-55.945 0-109.6-22.223-149.16-61.781s-61.781-93.211-61.781-149.16 22.223-109.6 61.781-149.16 93.211-61.781 149.16-61.781 109.6 22.223 149.16 61.781 61.781 93.211 61.781 149.16-22.223 109.6-61.781 149.16-93.211 61.781-149.16 61.781z"/>
  <path d="m457.73 564.61c65.703 0 128.71-26.102 175.18-72.559 46.457-46.461 72.559-109.47 72.559-175.18s-26.102-128.71-72.559-175.18c-46.461-46.457-109.47-72.559-175.18-72.559s-128.71 26.102-175.18 72.559c-46.457 46.461-72.559 109.47-72.559 175.18 0.0625 65.684 26.184 128.66 72.629 175.11 46.445 46.445 109.42 72.566 175.11 72.629zm0-448.59c53.27 0 104.36 21.16 142.03 58.832 37.672 37.668 58.832 88.758 58.832 142.03s-21.16 104.36-58.832 142.03c-37.668 37.672-88.758 58.832-142.03 58.832s-104.36-21.16-142.03-58.832c-37.672-37.668-58.832-88.758-58.832-142.03 0.0625-53.254 21.242-104.3 58.898-141.96s88.707-58.836 141.96-58.898z"/>
  <path d="m970.31 811.64-113.2 92.109-41.484-48.516c-5.4414-6.3633-13.867-9.3398-22.098-7.8086-8.2344 1.5312-15.023 7.3398-17.812 15.234-2.793 7.8945-1.1562 16.68 4.2852 23.043l56.25 65.859c4.4688 5.1875 10.969 8.1797 17.812 8.2031 5.3711 0.046875 10.59-1.7773 14.766-5.1562l131.02-106.64c6.4062-5.3008 9.5195-13.602 8.1797-21.809-1.3398-8.2031-6.9336-15.086-14.691-18.07-7.7617-2.9883-16.523-1.6367-23.02 3.5508z"/>
 </g>
</svg>
