<?xml version="1.0" encoding="UTF-8"?>
<svg width="1200pt" height="1200pt" version="1.1" viewBox="0 0 1200 1200" xmlns="http://www.w3.org/2000/svg">
 <path d="m150 795.7c0 54.199 45.301 98.301 101.1 98.301 27.102 0 51.801-10.5 69.898-27.5l178.4 100.1c-0.30078 3.3008-0.5 6.6992-0.5 10.102 0 54.199 45.301 98.301 101.1 98.301s101.1-44.102 101.1-98.301c0-3.3984-0.19922-6.8008-0.5-10.102l178.4-100.1c18.199 17 42.801 27.5 69.898 27.5 55.699 0 101.1-44.102 101.1-98.301 0-45-31.199-82.898-73.699-94.5v-198.7c42.398-11.699 73.699-49.602 73.699-94.5 0-54.199-45.301-98.301-101.1-98.301-26.301 0-50.199 9.8984-68.199 25.898l-180.3-101.2c0.39844-3.6992 0.69922-7.3984 0.69922-11.199 0-54.199-45.301-98.301-101.1-98.301-55.801 0-101.1 44.102-101.1 98.301 0 3.8008 0.30078 7.5 0.69922 11.199l-180.3 101.2c-18-16-41.898-25.898-68.199-25.898-55.699 0-101.1 44.102-101.1 98.301 0 44.898 31.199 82.898 73.699 94.5v198.7c-42.398 11.699-73.699 49.602-73.699 94.5zm450 247c-37.398 0-67.898-29.602-67.898-66 0-36.398 30.398-66 67.898-66s67.898 29.602 67.898 66c0 36.398-30.398 66-67.898 66zm416.8-247c0 36.398-30.398 66-67.898 66s-67.898-29.602-67.898-66c0-36.398 30.398-66 67.898-66s67.898 29.602 67.898 66zm-67.898-453.7c37.398 0 67.898 29.602 67.898 66s-30.398 66-67.898 66-67.898-29.602-67.898-66 30.398-66 67.898-66zm-348.9-184.7c37.398 0 67.898 29.602 67.898 66 0 36.398-30.398 66-67.898 66s-67.898-29.602-67.898-66c0-36.398 30.398-66 67.898-66zm-247.8 250.7c0-16.898-4.3984-32.801-12.199-46.699l169.3-95c16.5 32.602 50.898 55.199 90.699 55.199s74.301-22.602 90.699-55.199l169.2 95c-7.6992 13.898-12.199 29.801-12.199 46.699 0 52.301 42.199 95 95.301 98v191.7c-53 3-95.301 45.699-95.301 98 0 16.102 4.1016 31.301 11.199 44.699l-167.8 94.199c-16.301-33.102-51-56.199-91.199-56.199-40.199 0-74.898 23-91.199 56.199l-167.8-94.199c7.1016-13.398 11.199-28.602 11.199-44.699 0-52.301-42.199-95-95.301-98v-191.7c53-3 95.301-45.699 95.301-98zm-168.9 0c0-36.398 30.398-66 67.898-66s67.898 29.602 67.898 66-30.398 66-67.898 66-67.898-29.602-67.898-66zm67.898 321.7c37.398 0 67.898 29.602 67.898 66 0 36.398-30.398 66-67.898 66s-67.898-29.602-67.898-66c0-36.398 30.398-66 67.898-66zm159.6-72.398h23.301c2.5 6.6992 5.5 13.301 8.8984 19.602l-16.199 15.801c-7.8984 7.8008-7.8984 20.398 0 28.102l49.801 48.898c3.8984 3.8008 9.1016 5.8984 14.602 5.8984s10.699-2.1016 14.602-5.8984l18.898-18.5c5.5 2.3984 11.199 4.6016 16.898 6.3984v26.801c0 11 9.1992 20 20.602 20h70.398c11.301 0 20.602-9 20.602-20v-27.602c6.3008-1.8984 12.602-4.1992 18.699-6.8008l20.398 19c8 7.3984 20.5 7.3984 28.398 0l52.102-48.602c4-3.8008 6.3008-9 6.3008-14.5 0-5.3984-2.3008-10.699-6.3008-14.398l-16.5-15.301c3.5-6.1992 6.5-12.602 9.1016-19.199h23.801c11.301 0 20.602-9 20.602-20v-68.5c0-11-9.1992-20-20.602-20h-23.199c-2.6016-7.1992-5.6992-14.301-9.3008-21.102l16.699-16.898c7.6016-7.8008 7.6016-19.898 0-27.699l-49.898-50.602c-7.6992-7.8984-22-7.8008-29.699 0l-18.699 19c-5.5-2.5-11.102-4.6992-16.801-6.6016v-28.398c0-11-9.1992-20-20.602-20h-70.398c-11.301 0-20.602 9-20.602 20v32.602c-6.3008 1.8984-12.602 4.1992-18.699 6.8008l-20.398-19c-8-7.3984-20.5-7.3984-28.398 0l-52.102 48.5c-4 3.6992-6.3008 9-6.3984 14.398 0 5.3984 2.3008 10.699 6.3008 14.5l16.5 15.301c-3.5 6.1992-6.5 12.602-9.1016 19.199h-23.801c-11.301 0-20.602 9-20.602 20v68.5c0 11 9.1992 20 20.602 20zm12.699-76.199h23.102c7.3984 0 13.898-4.6992 15.898-11.602 3.6016-11.898 9-23.199 16.199-33.699 4.5-6.5 3.5-15.199-2.3008-20.602l-16.5-15.398 33.801-31.5 19.898 18.5c5.1016 4.8008 12.801 5.8008 19.102 2.6992 11-5.5 22.699-9.6992 34.801-12.5 7.5-1.6992 12.801-8.1992 12.801-15.699v-32.602h45.102v28.102c0 7.3984 5.1016 13.801 12.5 15.602 11.398 2.8984 22.5 7.1992 33 12.898 6.6016 3.6016 14.898 2.3984 20.102-2.8984l18.102-18.301 32.398 32.801-16.801 17c-5.1992 5.3008-6.1016 13.301-2.1992 19.602 6.8984 11 12.199 23 15.699 35.5 1.8984 7.1016 8.5 12 16 12h22.699v43.898h-23.102c-7.3984 0-13.898 4.6992-15.898 11.602-3.6016 11.898-9 23.199-16.199 33.699-4.5 6.5-3.5 15.199 2.3008 20.602l16.5 15.398-33.801 31.5-19.898-18.5c-5.1016-4.8008-12.801-5.8984-19.102-2.6992-11 5.5-22.699 9.6992-34.801 12.5-7.5 1.6992-12.801 8.1992-12.801 15.699v27.602h-45.102v-26.602c0-7.3984-5.1992-13.898-12.602-15.699-11.398-2.8008-22.602-7-33.102-12.5-6.5-3.3984-14.5-2.1992-19.699 2.8008l-18.301 17.898-32-31.398 16.199-15.898c5.5-5.3008 6.3984-13.602 2.3008-20-6.8984-10.602-12.102-22.102-15.602-34.102-2-7-8.5-11.801-16-11.801h-22.699v-43.898zm176.6 121.9c55.199 0 100.2-43.699 100.2-97.398 0-53.699-44.898-97.398-100.2-97.398-55.301 0-100.2 43.699-100.2 97.398 0 53.699 44.898 97.398 100.2 97.398zm0-162.5c36.898 0 66.898 29.199 66.898 65.102 0 35.898-30 65.102-66.898 65.102-36.898 0-66.898-29.199-66.898-65.102 0-35.898 30-65.102 66.898-65.102z" />
</svg>
