<?xml version="1.0" encoding="UTF-8"?>
<svg width="1200pt" height="1200pt" version="1.1" viewBox="0 0 1200 1200" xmlns="http://www.w3.org/2000/svg">
 <path d="m480 192c-159.05 0-288 128.95-288 288s128.95 288 288 288c79.547 0 151.5-32.203 203.63-84.375 52.172-52.125 84.375-124.08 84.375-203.63 0-159.05-128.95-288-288-288zm-360 288c0-198.84 161.16-360 360-360s360 161.16 360 360c0 86.438-30.516 165.79-81.234 227.81l310.69 310.74c14.062 14.062 14.062 36.844 0 50.906s-36.844 14.062-50.906 0l-310.74-310.69c-62.016 50.719-141.37 81.234-227.81 81.234-198.84 0-360-161.16-360-360z" fill="#9b9b9b" fill-rule="evenodd"/>
</svg>
