<?xml version="1.0" encoding="UTF-8"?>
<svg width="1200pt" height="1200pt" version="1.1" viewBox="0 0 1200 1200" xmlns="http://www.w3.org/2000/svg">
 <path d="m1018.9 244.89-412.5-150c-4.1367-1.5-8.6797-1.5-12.816 0l-412.5 150c-7.7461 2.8203-12.746 10.363-12.324 18.605l16.918 321.54c12.727 241.73 177.06 450.88 408.93 520.44 1.7578 0.53125 3.5703 0.78906 5.3828 0.78906s3.625-0.25781 5.3828-0.78906c231.87-69.562 396.2-278.7 408.93-520.44l16.918-321.54c0.42188-8.2383-4.5781-15.785-12.324-18.605zm-42.059 338.16c-11.793 224.1-162.95 418.23-376.85 484.84-213.9-66.613-365.06-260.74-376.85-484.84l-16.203-307.67 393.05-142.91 393.05 142.91-16.203 307.67zm-383.26-377.29-318.7 115.89c-7.7461 2.8203-12.746 10.363-12.324 18.605l13.074 248.4c9.9414 188.54 138.12 351.69 318.97 405.95 1.7578 0.53125 3.5703 0.78906 5.3828 0.78906s3.625-0.25781 5.3828-0.78906c180.85-54.254 309.03-217.4 318.97-405.95l13.074-248.4c0.42188-8.2383-4.5781-15.785-12.324-18.605l-318.7-115.89c-4.1367-1.5-8.6797-1.5-12.816 0zm305.66 146.38-12.359 234.54c-8.9922 170.91-124 319.02-286.89 370.35-162.89-51.324-277.9-199.44-286.89-370.35l-12.359-234.54 299.25-108.8zm-299.25 183.86 174.24-174.24c7.3242-7.3242 19.191-7.3242 26.512 0 7.3242 7.3242 7.3242 19.191 0 26.512l-174.24 174.24 174.24 174.24c7.3242 7.3242 7.3242 19.191 0 26.512-3.6602 3.6602-8.4609 5.4922-13.258 5.4922-4.7969 0-9.5938-1.832-13.258-5.4922l-174.24-174.24-174.24 174.24c-3.6602 3.6602-8.4609 5.4922-13.258 5.4922-4.7969 0-9.5938-1.832-13.258-5.4922-7.3242-7.3242-7.3242-19.191 0-26.512l174.24-174.24-174.24-174.24c-7.3242-7.3242-7.3242-19.191 0-26.512 7.3242-7.3242 19.191-7.3242 26.512 0l174.24 174.24z" fill="#cc0806"/>
</svg>
