<?xml version="1.0" encoding="UTF-8"?>
<svg width="1200pt" height="1200pt" version="1.1" viewBox="0 0 1200 1200" xmlns="http://www.w3.org/2000/svg">
 <path d="m292.37 318.04c156.24-170.4 421.81-181.49 591.59-23.891 81.383 75.539 128.99 179.4 133.09 290.38 1.2617 33.984-50.426 35.891-51.684 1.8594-10.176-274.84-308.95-438.12-544.81-305.04-34.078 19.223-64.871 43.859-91.141 72.77 25.355-2.3398 63.406-12.301 66.312 19.895 1.2734 14.148-9.2656 26.773-23.398 28.066l-97.355 8.9766c-14.172 1.3086-26.785-9.2383-28.078-23.398l-8.9883-97.344c-3.1211-33.816 48.359-38.578 51.492-4.6914zm578.23 527.86c-26.27 28.906-57.059 53.543-91.141 72.77-235.87 133.08-534.64-30.215-544.81-305.04-1.2617-34.031-52.945-32.125-51.684 1.8594 4.1055 110.98 51.707 214.84 133.09 290.38 169.78 157.6 435.34 146.51 591.57-23.891l2.9883 32.41c3.1328 33.898 54.602 29.137 51.492-4.6914l-8.9883-97.344c-1.3086-14.16-13.922-24.707-28.078-23.398l-97.355 8.9766c-14.137 1.3086-24.672 13.922-23.398 28.066 2.8984 32.207 40.949 22.246 66.309 19.906z" fill="#1d50a2" fill-rule="evenodd"/>
</svg>
